<?xml version="1.0" encoding="UTF-8" standalone="no"?>
<!-- Created with Inkscape (http://www.inkscape.org/) -->

<svg
   xmlns:dc="http://purl.org/dc/elements/1.1/"
   xmlns:cc="http://creativecommons.org/ns#"
   xmlns:rdf="http://www.w3.org/1999/02/22-rdf-syntax-ns#"
   xmlns:svg="http://www.w3.org/2000/svg"
   xmlns="http://www.w3.org/2000/svg"
   xmlns:sodipodi="http://sodipodi.sourceforge.net/DTD/sodipodi-0.dtd"
   xmlns:inkscape="http://www.inkscape.org/namespaces/inkscape"
   id="svg2"
   version="1.1"
   inkscape:version="0.91 r"
   xml:space="preserve"
   width="1475"
   height="881.25"
   viewBox="0 0 1475 881.25"
   sodipodi:docname="maparkhammansion.svg"><metadata
     id="metadata8"><rdf:RDF><cc:Work
         rdf:about=""><dc:format>image/svg+xml</dc:format><dc:type
           rdf:resource="http://purl.org/dc/dcmitype/StillImage" /><dc:title></dc:title></cc:Work></rdf:RDF></metadata><defs
     id="defs6" /><sodipodi:namedview
     pagecolor="#ffffff"
     bordercolor="#666666"
     borderopacity="1"
     objecttolerance="10"
     gridtolerance="10"
     guidetolerance="10"
     inkscape:pageopacity="0"
     inkscape:pageshadow="2"
     inkscape:window-width="1514"
     inkscape:window-height="997"
     id="namedview4"
     showgrid="false"
     inkscape:zoom="0.61554244"
     inkscape:cx="612.79576"
     inkscape:cy="387.40574"
     inkscape:window-x="2201"
     inkscape:window-y="986"
     inkscape:window-maximized="0"
     inkscape:current-layer="g10" /><g
     id="g10"
     inkscape:groupmode="layer"
     inkscape:label="ink_ext_XXXXXX"
     transform="matrix(1.25,0,0,-1.25,0,881.25)"><path
       inkscape:connector-curvature="0"
       id="path20"
       style="fill:none;stroke:#000000;stroke-width:2.4000001;stroke-linecap:butt;stroke-linejoin:miter;stroke-miterlimit:10;stroke-dasharray:none;stroke-opacity:1"
       d="m 394.078,678.32 0,-22.5 55.938,0.156 -0.157,7.266 -29.843,-0.235 0,7.344 30,0.625 -0.157,8.906 -55.781,-1.562 z" /><path
       inkscape:connector-curvature="0"
       id="path32"
       style="fill:none;stroke:#000000;stroke-width:2.4000001;stroke-linecap:butt;stroke-linejoin:miter;stroke-miterlimit:10;stroke-dasharray:none;stroke-opacity:1"
       d="m 395.207,462.613 -7.734,0 -0.219,26.625 -161.531,-1.438 0.386,47.707 4.688,0.625 -0.313,-5.937 45,1.875 0.313,41.722 49.844,-0.629 0,5.782 13.281,0.312 0,-24.687 45.937,0 0.282,27.074 33.156,0.113 0.348,10.184 15.933,-0.809 0.906,-37.812 14.375,0 0,-7.188 -8.125,-0.625 1.563,-66.875 -47.836,-0.183 -0.254,-15.836 z" /></g></svg>